<svg viewBox="0 0 512 512" xmlns="http://www.w3.org/2000/svg">
  <path fill="#0081FB" d="M449.446 0C483.971 0 512 28.03 512 62.554v386.892C512 483.97 483.97 512 449.446 512H62.554C28.03 512 0 483.97 0 449.446V62.554C0 28.03 28.03 0 62.554 0h386.892zm-58.87 136.346c-38.584 0-69.588 31.004-69.588 69.588 0 16.418 5.666 31.508 15.14 43.412l-51.684 51.684c-11.904-9.474-27.002-15.14-43.42-15.14-38.584 0-69.588 31.004-69.588 69.588 0 38.584 31.004 69.588 69.588 69.588 38.584 0 69.588-31.004 69.588-69.588 0-16.418-5.666-31.508-15.14-43.42l51.684-51.684c11.912 9.474 27.002 15.14 43.42 15.14 38.584 0 69.588-31.004 69.588-69.588 0-38.584-31.004-69.58-69.588-69.58z"/>
  <text x="256" y="280" text-anchor="middle" font-family="Arial, sans-serif" font-size="140" font-weight="700" fill="#0081FB">Meta</text>
</svg>